<svg xmlns="http://www.w3.org/2000/svg" width="36.3" height="24.4" viewBox="0 0 36.3 24.4">
  <defs>
    <style>
      .about-fill {
        fill: #231f20;
      }
    </style>
  </defs>
  <g id="info">
    <path class="about-fill" d="M14.7,2.6a4.4,4.4,0,0,0-1.2-1A6.4,6.4,0,0,0,12.3,1L10.7.5A8.8,8.8,0,0,0,7.5.4a11.5,11.5,0,0,0-2.8,1A8,8,0,0,0,2.2,3.5,8.2,8.2,0,0,0,.9,5.8,8.2,8.2,0,0,0,.4,7.5,7.5,7.5,0,0,0,.3,9.9a5.6,5.6,0,0,0,.5,1.9A8.7,8.7,0,0,0,1.9,14,9.4,9.4,0,0,0,5,16.6a8.2,8.2,0,0,0,3.2.9,7.9,7.9,0,0,0,3.2-.3,8.4,8.4,0,0,0,4.1-2.8L21,9C17.9,5.7,15.5,3.3,14.7,2.6ZM9,4.4a1.2,1.2,0,0,1,1.3,1.2A1.2,1.2,0,0,1,9,6.7,1.1,1.1,0,0,1,7.8,5.6,1.2,1.2,0,0,1,9,4.4ZM10.8,13H7.4V11.8H8v-3H7.3V7.6l2.9-.2v4.4h.6Z" transform="translate(-0.3 -0.3)"/>
  </g>
  <g id="contact">
    <path class="about-fill" d="M36.5,14.6c-.1-.2-.2-.9-.5-1.7a12,12,0,0,0-1.3-2.3,11.8,11.8,0,0,0-2.5-2.1,11.5,11.5,0,0,0-2.8-1,12.1,12.1,0,0,0-3.2.1l-1.6.5-1.2.6-1.3,1-6.3,6.4c1.9,1.8,3.7,3.6,5.5,5.5a9.4,9.4,0,0,0,4.2,2.7,7.9,7.9,0,0,0,3.2.3,8.2,8.2,0,0,0,3.2-.9,8.3,8.3,0,0,0,3-2.6,8.2,8.2,0,0,0,1.2-2.2,9.7,9.7,0,0,0,.4-1.9A9.2,9.2,0,0,0,36.5,14.6Zm-5.2,4.3h-.4l-.3.2a6,6,0,0,1-1.8.5H27.6l-1.1-.3-.8-.3h-.4l-.3-.2h-.1c.1-.2.1-.5.2-.7s.1-.3.1-.5a6.4,6.4,0,0,1,.6-1,2.7,2.7,0,0,1,1.1-1l.5-.2h0a1.9,1.9,0,0,1-1.2-1.8,2,2,0,0,1,2-1.9,2,2,0,0,1,1.9,1.9,1.7,1.7,0,0,1-1.3,1.8l.9.5a4.7,4.7,0,0,1,1,1.1l.5,1.1c0,.2.1.5.1.6h0v.2Z" transform="translate(-0.3 -0.3)"/>
  </g>
</svg>
