<svg xmlns="http://www.w3.org/2000/svg" width="74" height="58.1" viewBox="0 0 74 58.1"><title>code-simple</title><rect x="0.5" y="0.5" width="73" height="57.07" rx="3.7" fill="none" stroke="#6d6e71" stroke-miterlimit="10" stroke-width="0.99"/><line x1="0.6" y1="7.3" x2="73.1" y2="7.3" fill="none" stroke="#6d6e71" stroke-miterlimit="10" stroke-width="0.99"/><circle cx="3.1" cy="3.9" r="1.3" fill="none" stroke="#6d6e71" stroke-miterlimit="10" stroke-width="0.25"/><circle cx="7.1" cy="3.9" r="1.3" fill="none" stroke="#6d6e71" stroke-miterlimit="10" stroke-width="0.25"/><circle cx="11.1" cy="3.9" r="1.3" fill="none" stroke="#6d6e71" stroke-miterlimit="10" stroke-width="0.25"/><path d="M62.1,30.8h-.2l-7.4-7.5a1.6,1.6,0,0,0-2.3,2.3L58.7,32l-6.4,6.5a1.4,1.4,0,0,0,0,2.2,1.6,1.6,0,0,0,2.2,0l7.6-7.6A1.7,1.7,0,0,0,62.1,30.8Z" transform="translate(-0.1 0)" fill="#6d6e71"/><path d="M20.6,23.1,13,30.7A1.5,1.5,0,0,0,13,33h.2l7.4,7.5a1.6,1.6,0,1,0,2.3-2.3l-6.6-6.5,6.5-6.5a1.6,1.6,0,0,0-2.2-2.2Z" transform="translate(-0.1 0)" fill="#6d6e71"/><rect x="36" y="13.4" width="4.2" height="35.74" rx="2.1" transform="translate(63.1 73.7) rotate(-160)" fill="#6d6e71"/></svg>