<svg id="google" xmlns="http://www.w3.org/2000/svg" width="24" height="24" viewBox="0 0 24 24" fill="white"><title>google+</title><path d="M12,0A12,12,0,1,0,24,12,11.9,11.9,0,0,0,12,0ZM9.6,17.1A4.9,4.9,0,0,1,4.7,12,5.2,5.2,0,0,1,6.2,8.3,5.9,5.9,0,0,1,9.8,6.9a7.7,7.7,0,0,1,3,.4l-1.4,2A2.4,2.4,0,0,0,9.8,9a2.9,2.9,0,0,0-2,.7,3.3,3.3,0,0,0-1,2.3,2.9,2.9,0,0,0,2.9,3,2.3,2.3,0,0,0,2.5-2.1v-.2H9.6V10.8h4.7a6.1,6.1,0,0,1,.1,1.4A4.6,4.6,0,0,1,9.6,17.1Zm9.6-5v2.1H17.8V12.1H15.7V10.8h2.1V8.6h1.4v2.2h2.1v1.3Z" transform="translate(0 0)"/></svg>