<svg xmlns="http://www.w3.org/2000/svg" width="23.6" height="23.8" viewBox="0 0 23.6 23.8"><title>home-btn</title><g id="base"><path d="M16,23.6c-.2,0-.3-.1-.3-.2v-8a.7.7,0,0,0-.4-.7H8.9a.7.7,0,0,0-.7.7v8c0,.1-.1.2-.3.2H3.6a.2.2,0,0,1-.2-.2V12.3c0-.1,0-.2.1-.2l8.5-7h.3l8.3,7.1V23.4c0,.1,0,.1-.1.2H16Z" transform="translate(-0.2 0)" fill="#fff"/><path d="M12.1,5.3l8.3,7.1c.1,3.6.1,7.3.1,11H16v-8a1.1,1.1,0,0,0-.6-.9H8.9a1.1,1.1,0,0,0-1,1v8H3.6V12.3l8.5-7m0-.4h-.3L4.4,11.1l-1.1.8a.5.5,0,0,0-.2.4V23.4a.5.5,0,0,0,.5.5H7.9a.5.5,0,0,0,.5-.5v-8a.5.5,0,0,1,.5-.5h6.3a.5.5,0,0,1,.3.5v8a.5.5,0,0,0,.5.5h4.5l.3-.2a.4.4,0,0,0,.1-.3v-11c0-.2,0-.3-.2-.4L12.4,5Z" transform="translate(-0.2 0)" fill="#fff"/><rect x="9.7" y="16.3" width="4.1" height="7.01" fill="#fff"/></g><g id="roof"><path d="M23.3,9.1,19,5.5V2A1.2,1.2,0,0,0,17.8.8h-.5A1.2,1.2,0,0,0,16.1,2V3L13.1.4a1.7,1.7,0,0,0-1-.3,1.4,1.4,0,0,0-1.2.3L.8,9.1a1.5,1.5,0,0,0-.2,2.2,1.6,1.6,0,0,0,2.2.1L12,3.5l9.2,7.9a1.6,1.6,0,0,0,2.1-2.3Z" transform="translate(-0.2 0)" fill="#fff"/></g></svg>