<svg xmlns="http://www.w3.org/2000/svg" width="36.6" height="24.6" viewBox="0 0 36.6 24.6">
  <defs>
    <style>
      .cls-1 {
        fill: #231f20;
        stroke: #231f20;
        stroke-miterlimit: 10;
        stroke-width: 0.25px;
      }

      .cls-2 {
        fill: #fff;
      }
    </style>
  </defs>
  <title>icon</title>
  <g id="info">
    <path class="cls-1" d="M21,9l-5.5,5.4a8.4,8.4,0,0,1-4.1,2.8,7.9,7.9,0,0,1-3.2.3A8.2,8.2,0,0,1,5,16.6,9.4,9.4,0,0,1,1.9,14,8.7,8.7,0,0,1,.8,11.8,5.6,5.6,0,0,1,.3,9.9,7.5,7.5,0,0,1,.4,7.5,8.2,8.2,0,0,1,.9,5.8,8.2,8.2,0,0,1,2.2,3.5,8,8,0,0,1,4.7,1.4,11.5,11.5,0,0,1,7.5.4a8.8,8.8,0,0,1,3.2.1l1.6.5a6.4,6.4,0,0,1,1.2.6,4.4,4.4,0,0,1,1.2,1C15.5,3.3,17.9,5.7,21,9Z" transform="translate(-0.2 -0.2)"/>
    <path class="cls-2" d="M8,11.8v-3H7.3V7.6l2.9-.2v4.4h.6V13H7.4V11.8ZM7.8,5.6A1.2,1.2,0,0,1,9,4.4a1.2,1.2,0,0,1,1.3,1.2A1.2,1.2,0,0,1,9,6.7,1.1,1.1,0,0,1,7.8,5.6Z" transform="translate(-0.2 -0.2)"/>
  </g>
  <g id="contact">
    <path class="cls-1" d="M15.8,16.1l5.5,5.5a9.4,9.4,0,0,0,4.2,2.7,7.9,7.9,0,0,0,3.2.3,8.2,8.2,0,0,0,3.2-.9,8.3,8.3,0,0,0,3-2.6,8.2,8.2,0,0,0,1.2-2.2,9.7,9.7,0,0,0,.4-1.9,9.2,9.2,0,0,0,0-2.4c-.1-.2-.2-.9-.5-1.7a12,12,0,0,0-1.3-2.3,11.8,11.8,0,0,0-2.5-2.1,11.5,11.5,0,0,0-2.8-1,12.1,12.1,0,0,0-3.2.1l-1.6.5-1.2.6-1.3,1Z" transform="translate(-0.2 -0.2)"/>
    <path class="cls-2" d="M31.3,18.6h0c0-.1-.1-.4-.1-.6l-.5-1.1a4.7,4.7,0,0,0-1-1.1l-.9-.5a1.7,1.7,0,0,0,1.3-1.8,2,2,0,0,0-1.9-1.9,2,2,0,0,0-2,1.9,1.9,1.9,0,0,0,1.2,1.8h0l-.5.2a2.7,2.7,0,0,0-1.1,1,6.4,6.4,0,0,0-.6,1c0,.2-.1.3-.1.5s-.1.5-.2.7H25l.3.2h.4l.8.3,1.1.3h1.2a6,6,0,0,0,1.8-.5l.3-.2h.4Z" transform="translate(-0.2 -0.2)"/>
  </g>
</svg>
