<svg id="info" xmlns="http://www.w3.org/2000/svg" width="22.6" height="22.6" viewBox="0 0 22.6 22.6"><title>info-btn</title><path d="M12,.7a11.3,11.3,0,0,0,0,22.6A11.3,11.3,0,0,0,12,.7Zm2.7,16.9v.3l-.3.2-.4.2-1.1.3H11.5l-.6-.2c-.2,0-.5-.2-.8-.6a.6.6,0,0,1-.2-.5,2.2,2.2,0,0,1,0-1.4,2.6,2.6,0,0,1,.1-.7,10.3,10.3,0,0,0,.5-1.6,6.6,6.6,0,0,0,.4-1.5,2.6,2.6,0,0,0,0-.9,1,1,0,0,0-.4-.5H9.9c-.6.1-.9.4-1,.3s0-.2,0-.4v-.4c0-.1.1-.2.4-.3l1.1-.3h1.2l.8.2a1.9,1.9,0,0,1,1.3,1.2,5.4,5.4,0,0,1-.1,1.7,9.5,9.5,0,0,1-.5,1.8,5.7,5.7,0,0,0-.4,1.4,2.1,2.1,0,0,0-.1,1.1.8.8,0,0,0,.2.4,1.2,1.2,0,0,0,1.4.1l.5-.2A1.3,1.3,0,0,1,14.7,17.6ZM13.3,8.1a1.7,1.7,0,0,1,0-3.4,1.7,1.7,0,0,1,1.6,1.7A1.7,1.7,0,0,1,13.3,8.1Z" transform="translate(-0.7 -0.7)" fill="#fff"/></svg>