<svg id="mask" xmlns="http://www.w3.org/2000/svg" width="95.2" height="27.4" viewBox="0 0 95.2 27.4">
  <defs>
    <style>
      .aBlack-fill {
        fill: #231f20;
      }

      .red-fill {
        fill: #ed1c24;
      }

      .black-fill {
        fill: #141415;
      }
    </style>
  </defs>
  <path class=".aBlack-fill" d="M.9,1.4V28.8H25.6V1.4ZM17.5,24.3l-4.2-7.6c-.8.9-1.5,1.9-2.2,2.8v4.9h-4V5.9h4V14l6.3-8.1H22c-2,2.5-4,5-5.9,7.6l6,10.8Z" transform="translate(-0.9 -1.4)"/>
  <path class=".red-fill" d="M78.3,8l.7.4h.2L80,6.9h0l.7,1.5h.2l.8-.5h0l-.5,2.4h.3l1-1h0l.2.6h.2l1.2-.3-.4,1.3h0l.5.2h0l-2.1,1.8H82l.3.7-1.9-.3h-.3v2h-.4c.1-1.1.1-1.9.1-2h-.2l-2,.3a2.3,2.3,0,0,0,.2-.7h0l-2.1-1.8.5-.2h0l-.4-1.3h0l1.2.3h.2l.2-.6h0l1,1h.3L78.3,8Z" transform="translate(-0.9 -1.4)"/>
  <g>
    <path class=".black-fill" d="M29.1,18.9V9.8a.3.3,0,0,1,.3-.3h2.1a.3.3,0,0,1,.3.3v3.6a.8.8,0,0,0,.7-.4l1.3-2.5c.4-.8.7-1,1.1-1H37a.3.3,0,0,1,.3.3c0,.2-.1.2-.2.3s-.2.1-.3.3l-1.5,2.4c-.5.9-.8,1.2-1.4,1.3s.8.3,1.4,1.2l1.6,3q.1.3.3.3c.1.1.2.1.2.3s-.1.2-.3.2H34.9c-.5,0-.9-.2-1.2-1l-1.4-2.8c-.1-.4-.2-.5-.5-.5v4.1c0,.1-.1.2-.3.2H29.4C29.2,19.1,29.1,19,29.1,18.9Z" transform="translate(-0.9 -1.4)"/>
    <path class=".black-fill" d="M36.5,15.6V14.3a.3.3,0,0,1,.3-.3h3.1a.3.3,0,0,1,.3.3v1.3c0,.1-.1.2-.3.2H36.8C36.6,15.8,36.5,15.7,36.5,15.6Z" transform="translate(-0.9 -1.4)"/>
    <path class=".black-fill" d="M41.5,18.9V9.8a.3.3,0,0,1,.3-.3h3.9c1.9,0,2.8,1,2.8,2.5a2.2,2.2,0,0,1-1.3,2,2.5,2.5,0,0,1,1.7,2.4c0,1.7-1.1,2.7-3,2.7H41.8C41.6,19.1,41.5,19,41.5,18.9Zm3.4-5.7c.6,0,1-.2,1-.9s-.5-.8-1.1-.8h-.6v1.7Zm.2,4c.8,0,1.2-.2,1.2-1.1s-.4-1-1.2-1h-.9v2.1Z" transform="translate(-0.9 -1.4)"/>
    <path class=".black-fill" d="M50,18.9V8.7c0-.2.1-.3.2-.3h2.1a.3.3,0,0,1,.3.3V18.9c0,.1-.1.2-.3.2H50.2A.2.2,0,0,1,50,18.9Z" transform="translate(-0.9 -1.4)"/>
    <path class=".black-fill" d="M53.7,15.5a3.8,3.8,0,0,1,7.5,0,3.8,3.8,0,1,1-7.5,0Zm4.8,0c0-1.2-.4-1.5-1-1.5s-1.1.3-1.1,1.5.4,1.5,1.1,1.5S58.5,16.7,58.5,15.5Z" transform="translate(-0.9 -1.4)"/>
    <path class=".black-fill" d="M61.9,15.5c0-2.3,1.2-3.7,3.7-3.7a3.8,3.8,0,0,1,2,.5c.4.3.4.4.4.7v1c0,.4,0,.5-.3.5h-.4a3.3,3.3,0,0,0-1.4-.4c-.7,0-1.4.3-1.4,1.5s.7,1.5,1.4,1.5a3.2,3.2,0,0,0,1.4-.3h.4c.3,0,.3.1.3.4v1.1c0,.3,0,.4-.4.7a3.8,3.8,0,0,1-2,.5C63.1,19.3,61.9,17.9,61.9,15.5Z" transform="translate(-0.9 -1.4)"/>
    <path class=".black-fill" d="M69.2,18.9V8.7a.3.3,0,0,1,.3-.3h2.1a.3.3,0,0,1,.3.3v5.9c.3,0,.4,0,.6-.3l.8-1.3c.6-.9.9-1.1,1.4-1.1h1.9a.3.3,0,0,1,.3.3c0,.2-.1.2-.2.3s-.1.1-.2.2l-1.6,2.2-.5.4c.2,0,.3.2.4.4l1.8,2.7a.2.2,0,0,0,.2.2c.1.1.2.1.2.3s-.1.2-.3.2H74.6c-.5,0-.8-.1-1.3-.9l-.9-1.8c-.2-.3-.3-.3-.5-.3v2.8c0,.1-.2.2-.3.2H69.5C69.3,19.1,69.2,19,69.2,18.9Z" transform="translate(-0.9 -1.4)"/>
  </g>
  <g>
    <path class=".red-fill" d="M80.1,16.9a1.3,1.3,0,0,1,1.3,1.4,1.3,1.3,0,0,1-2.6,0A1.3,1.3,0,0,1,80.1,16.9Z" transform="translate(-0.9 -1.4)"/>
    <path class=".red-fill" d="M82.2,15.8c0-2.4,1.3-3.8,3.7-3.8a4,4,0,0,1,2.1.6c.3.2.4.3.4.6v1.1c0,.3-.1.5-.3.5l-.5-.2a2.8,2.8,0,0,0-1.3-.3c-.8,0-1.4.3-1.4,1.5s.6,1.5,1.4,1.5a2.8,2.8,0,0,0,1.3-.3l.5-.2c.2,0,.3.2.3.5v1a.8.8,0,0,1-.4.7,4.2,4.2,0,0,1-2.1.5A3.4,3.4,0,0,1,82.2,15.8Z" transform="translate(-0.9 -1.4)"/>
    <path class=".red-fill" d="M91.5,19.5a2.1,2.1,0,0,1-2.4-2.3c0-1.5,1.2-2.2,2.8-2.2h1.3v-.2c0-.6-.1-.9-.8-.9a4.1,4.1,0,0,0-1.9.4h-.6c-.2,0-.3-.1-.3-.4v-.9c0-.3.1-.5.6-.7a7.2,7.2,0,0,1,2.7-.5c2,0,2.9.8,2.9,2.6v3.1c0,.3.1.5.3.5h0c0,.6-.2,1.2-1.4,1.2a1.4,1.4,0,0,1-1.4-.7A2.3,2.3,0,0,1,91.5,19.5Zm1.7-1.7V16.3l-.6-.2a.8.8,0,0,0-.9.9c0,.7.3.9.9.9Z" transform="translate(-0.9 -1.4)"/>
  </g>
</svg>
