<svg xmlns="http://www.w3.org/2000/svg" width="222.1" height="43" viewBox="0 0 222.1 43"><title>KayDevelopment</title><g id="tile"><path d="M1,1V44H41V1ZM26.4,37.5,19.5,25l-3.6,4.5v8H9.3V7.3h6.6V20.5L26.2,7.3h7.7L24.1,19.7,34,37.5Z" transform="translate(-1 -1)" fill="#fff"/></g><g id="text"><path d="M127.1,30.5l-2.9-2.9a.8.8,0,0,0-1.1,0,.9.9,0,0,0,0,1.2l3.4,3.4.6.3a.9.9,0,0,0,.6-.3l3.4-3.4a.9.9,0,0,0,0-1.2.8.8,0,0,0-1.1,0Z" transform="translate(-1 -1)" fill="#fff"/><path d="M61.2,25.6c0,4.8-3,7.7-8.3,7.7H45.8V11h7.1c5.3,0,8.3,2.9,8.3,7.7Zm-.3-6.9c0-4.7-2.9-7.4-8-7.4H46.1V33h6.8c5.1,0,8-2.8,8-7.4Z" transform="translate(-1 -1)" fill="#fff" stroke="#fff" stroke-miterlimit="10"/><path d="M78.3,28.6c0,3-2.2,5-6,5S66,31.5,66,27.9V22.6C66,19,68.5,17,72.2,17s6.1,2,6.1,5.6v2.6h-12v2.7c0,3.4,2.2,5.4,6,5.4S78,31.4,78,28.6Zm-12-3.7H78V22.6c0-3.5-2.3-5.3-5.8-5.3s-5.9,1.8-5.9,5.3Z" transform="translate(-1 -1)" fill="#fff" stroke="#fff" stroke-miterlimit="10"/><path d="M88.3,33.3,81.2,17.4h.4L88.5,33l6.9-15.6h.3l-7,15.9Z" transform="translate(-1 -1)" fill="#fff" stroke="#fff" stroke-miterlimit="10"/><path d="M110.9,28.6c0,3-2.2,5-6,5s-6.3-2.1-6.3-5.7V22.6c0-3.6,2.4-5.6,6.2-5.6s6.1,2,6.1,5.6v2.6h-12v2.7c0,3.4,2.2,5.4,6,5.4s5.7-1.9,5.7-4.7Zm-12-3.7h11.7V22.6c0-3.5-2.3-5.3-5.8-5.3s-5.9,1.8-5.9,5.3Z" transform="translate(-1 -1)" fill="#fff" stroke="#fff" stroke-miterlimit="10"/><path d="M115.7,9.7h.3V33.3h-.3Z" transform="translate(-1 -1)" fill="#fff" stroke="#fff" stroke-miterlimit="10"/><path d="M133.1,28c0,3.7-2.5,5.6-6.2,5.6s-6.1-1.9-6.1-5.6V22.6c0-3.6,2.4-5.6,6.1-5.6s6.2,2,6.2,5.6Zm-.3-5.4c0-3.5-2.4-5.3-5.9-5.3s-5.8,1.8-5.8,5.3V28c0,3.5,2.3,5.3,5.8,5.3s5.9-1.8,5.9-5.3Z" transform="translate(-1 -1)" fill="red" stroke="red" stroke-miterlimit="10"/><path d="M150.2,28c0,3.5-2.3,5.6-6,5.6s-5.3-1.5-6-4v10h-.3V17.4h.3v3.7c.7-2.6,2.8-4.1,6-4.1s6,2.1,6,5.6Zm-.3-5.4c0-3.3-2.2-5.3-5.7-5.3s-6,2.2-6,5.7v4.7c0,3.5,2.3,5.6,6,5.6s5.7-2,5.7-5.3Z" transform="translate(-1 -1)" fill="#fff" stroke="#fff" stroke-miterlimit="10"/><path d="M155,17.4h.3v3.2a4.8,4.8,0,0,1,4.9-3.6c2.7,0,4.6,1.3,4.9,4.1a4.9,4.9,0,0,1,5.1-4.1c3.1,0,5,1.6,5,5.3v11h-.3v-11c0-3.5-1.8-5-4.7-5s-5,1.8-5,5.3V33.3h-.3v-11c0-3.5-1.7-5-4.7-5s-4.9,1.8-4.9,5.3V33.3H155Z" transform="translate(-1 -1)" fill="#fff" stroke="#fff" stroke-miterlimit="10"/><path d="M192.3,28.6c0,3-2.2,5-6,5s-6.3-2.1-6.3-5.7V22.6c0-3.6,2.4-5.6,6.1-5.6s6.2,2,6.2,5.6v2.6h-12v2.7c0,3.4,2.2,5.4,6,5.4s5.7-1.9,5.7-4.7Zm-12-3.7H192V22.6c0-3.5-2.4-5.3-5.9-5.3s-5.8,1.8-5.8,5.3Z" transform="translate(-1 -1)" fill="#fff" stroke="#fff" stroke-miterlimit="10"/><path d="M197.1,17.4h.3v3.4c.7-2.5,3-3.8,6-3.8s6,1.6,6,5.3v11h-.3v-11c0-3.5-2.2-5-5.7-5s-6,1.8-6,5.3V33.3h-.3Z" transform="translate(-1 -1)" fill="#fff" stroke="#fff" stroke-miterlimit="10"/><path d="M216.7,27.6c0,4.5.6,6.3,5.9,5.4v.3c-5.8,1.1-6.2-1.4-6.2-6V17.6h-3.8v-.2h3.8V11h.3v6.4h5.9v.2h-5.9Z" transform="translate(-1 -1)" fill="#fff" stroke="#fff" stroke-miterlimit="10"/><path d="M127.1,20.7l2.9,2.9a.8.8,0,0,0,1.1,0,.9.9,0,0,0,0-1.2L127.7,19a.9.9,0,0,0-.6-.3l-.6.3-3.4,3.4a.9.9,0,0,0,0,1.2.8.8,0,0,0,1.1,0Z" transform="translate(-1 -1)" fill="#fff"/><circle cx="126.3" cy="24.7" r="0.9" fill="red" stroke="red" stroke-miterlimit="10"/></g></svg>