<svg xmlns="http://www.w3.org/2000/svg" width="59.2" height="57.7" viewBox="0 0 59.2 57.7"><title>repair-simple</title><path d="M7.5,1l-.4.7.3.2,3.9,2.2,3.6,2.1v.6a7.6,7.6,0,0,1-.3,2.1,9,9,0,0,1-4.1,5.6l-.4.2L6.4,12.6,2.5,10.3H2.3l-.2.4V11l.2.6A15.9,15.9,0,0,0,5.5,17a13,13,0,0,0,8.7,3.2,4,4,0,0,1,1.8.4,21.3,21.3,0,0,1,4.4,3.5,41.4,41.4,0,0,1,3.4,3.2l1.5,1.5,2.9-3,3-3-1.6-1.6c-4.3-4.3-6.8-7.2-7.7-8.9s-.3-.7-.3-1.8a14.1,14.1,0,0,0-1-5.2,7.7,7.7,0,0,0-3-3.2C15.6,1,12.8.4,9,.3H7.9Z" transform="translate(-0.5 -0.2)" fill="#6d6e71"/><path d="M50.5,4.7,46.8,7.3a7.5,7.5,0,0,0-.5,1.6L46,10.3,35.3,21,24.5,31.7l-1.4-.9-1.5-.9-.8.7c-.7.7-.7.8-.7.9a6,6,0,0,1-.2,1.2A6.9,6.9,0,0,1,16.1,37a9.1,9.1,0,0,1-2.9,1h-.5L6.6,44.1.5,50.2v.4a8.2,8.2,0,0,0,2.6,5,8,8,0,0,0,4.3,2.3h.9l6.1-6.1c5.6-5.7,6.1-6.1,6.1-6.3a8,8,0,0,1,.5-2.3,7.8,7.8,0,0,1,4.7-4.7l.9-.2h.6l.7-.8.7-.7-.9-1.5-.9-1.5L37.4,23.2,48.2,12.5l1.5-.4,1.5-.4L53.8,8l2.6-3.7-1-.9a5.1,5.1,0,0,0-1.1-1.1l-.2-.2Z" transform="translate(-0.5 -0.2)" fill="#6d6e71"/><path d="M32.7,30.2l-3,3,2,2c2.9,2.9,4.3,4.3,5.7,6s2.5,3.2,2.6,3.9a3.1,3.1,0,0,1,.1,1.2c.1,3.3.8,5.4,2.3,7a6,6,0,0,0,2.2,1.6c1.9,1,4.5,1.5,8.1,1.6h1.1l.3-.7.4-.8h-.2l-3.9-2.2-3.6-2.1V50a9,9,0,0,1,4.3-7.7l.5-.2,3.7,2.1,3.9,2.2h.1l.2-.4.2-.3v-.4a29.6,29.6,0,0,0-1.5-3.1,11.5,11.5,0,0,0-8.6-5.6L47,36.5a4,4,0,0,1-2.2-.8,66.6,66.6,0,0,1-7.3-6.6l-1.9-1.8Z" transform="translate(-0.5 -0.2)" fill="#6d6e71"/></svg>