<svg id="twitter-bird" xmlns="http://www.w3.org/2000/svg" width="23.8" height="19.4" viewBox="0 0 23.8 19.4" fill="white"><title>twitter-bird</title><path d="M20.1,4.2a4.4,4.4,0,0,0-1.6-1.1,5.5,5.5,0,0,0-2.1-.4,5.2,5.2,0,0,0-3.1,1.1,5.6,5.6,0,0,0-1.7,3.3,3.4,3.4,0,0,0,.1,1.5,13.2,13.2,0,0,1-4.3-.8,15.6,15.6,0,0,1-3.5-2A15,15,0,0,1,1.7,3.6a2.8,2.8,0,0,0-.5,1.1A3.4,3.4,0,0,0,1,6a4.4,4.4,0,0,0,.6,2.4,6.7,6.7,0,0,0,1.5,1.7L1.9,9.9l-1-.4A4.9,4.9,0,0,0,1.2,11a4.9,4.9,0,0,0,.7,1.6l1,.9a5.7,5.7,0,0,0,1.3.7l.5.2H2.6a5.6,5.6,0,0,0,1.7,2.4,6.2,6.2,0,0,0,2.9,1.1l-1.6.9A9.1,9.1,0,0,1,1,19.9H0l1.8,1a14.9,14.9,0,0,0,5.8,1.2,12.7,12.7,0,0,0,6-1.4,8.4,8.4,0,0,0,2.3-1.4,12.5,12.5,0,0,0,3.4-3.7,15.7,15.7,0,0,0,2-5.7,22.7,22.7,0,0,0,.1-2.4l1.2-1L23.8,5l-1.3.4-1.4.3,1.2-1A5.6,5.6,0,0,0,23.2,3a5.4,5.4,0,0,1-1.7.8Z" transform="translate(0 -2.7)"/></svg>