<svg xmlns="http://www.w3.org/2000/svg" width="67.4" height="53.8" viewBox="0 0 67.4 53.8"><title>vectors-color</title><path d="M4.7,50.5a22.4,22.4,0,0,1,4.2-8.6s4.6-6.2,11.6-8.3a32.2,32.2,0,0,1,4.1-.9l2.1-.3,3.8-.3h5.6a52.5,52.5,0,0,0,5.5-.9c1.4-.3,3.5-.8,6-1.6a37.4,37.4,0,0,0,6.8-3,33.4,33.4,0,0,0,6.1-5,31.9,31.9,0,0,0,3.9-4.9l.7-1.1c.2-.4.2-.5.3-.5s2.4-.6,2.7.2.1.2.1.5a5.7,5.7,0,0,1-1.1,2.5L66,19.9c-.6.7-1.5,2-2.7,3.3a25.4,25.4,0,0,1-5.1,3.9,31.1,31.1,0,0,1-4.6,2.7,31.2,31.2,0,0,1-4.5,1.8,48.1,48.1,0,0,1-7.5,2.2,60.7,60.7,0,0,1-9.5,1,33.9,33.9,0,0,0-4.3.1,29.7,29.7,0,0,0-4.6.8A20.4,20.4,0,0,0,18.1,38a22.9,22.9,0,0,0-5.3,3.9,27,27,0,0,0-3.5,4.4,30.5,30.5,0,0,0-1.7,3.6c-.1.2-.1.4-.2.5Z" transform="translate(-3 -1.9)" fill="#231f20"/><rect x="5.8" y="30" width="54.9" height="1.59" fill="#448584"/><rect x="29.9" y="26.5" width="8.2" height="8.25" fill="#e16854"/><circle cx="2.9" cy="50.9" r="2.9" fill="#fec000"/><circle cx="64.4" cy="11.2" r="2.9" fill="#fec000"/><path d="M12.3,15.8l7.4-7.9L22,9.6l1.6,1,.8.2a10.6,10.6,0,0,1,3.2,1.1,6.6,6.6,0,0,1,3.6,3.6,6.9,6.9,0,0,1,.3,1.6,37.7,37.7,0,0,1,3.6,7,37.3,37.3,0,0,1,2,7.8H37a31.3,31.3,0,0,1-7.9-1.7A34,34,0,0,1,22,27l-1.6-.3c-2.2-.6-3.2-2.5-3.8-3.4a11.3,11.3,0,0,1-1.2-3.2l-.2-.8-1-1.6A16.9,16.9,0,0,0,12.3,15.8Z" transform="translate(-3 -1.9)" fill="#ccc"/><path d="M24.8,17.4a2,2,0,0,1,2,2c0,.2-.1.4-.1.6L36.8,30.2l-1.3,1.3L25.3,21.3h-.5a2,2,0,0,1,0-4Z" transform="translate(-3 -1.9)"/><path d="M12.3,15.5l7.3-7.9L22,9.3l1.6,1,.8.2a11.7,11.7,0,0,1,3.2,1.1,6.6,6.6,0,0,1,3.6,3.6,6.9,6.9,0,0,1,.3,1.6,37.7,37.7,0,0,1,3.6,7,37.3,37.3,0,0,1,2,7.8H37A32,32,0,0,1,29,30a32.9,32.9,0,0,1-7-3.3l-1.7-.3A6.6,6.6,0,0,1,16.6,23a11.3,11.3,0,0,1-1.2-3.2l-.2-.8a11.6,11.6,0,0,0-1.1-1.6A17,17,0,0,0,12.3,15.5Z" transform="translate(-3 -1.9)" fill="none" stroke="#000" stroke-miterlimit="10" stroke-width="1.7"/><rect x="6.9" y="6.1" width="14.8" height="7.31" transform="translate(28.2 4.4) rotate(134.1)" fill="#333"/></svg>