<svg id="play-youtube" xmlns="http://www.w3.org/2000/svg" width="23.7" height="17.7" viewBox="0 0 23.7 17.7" fill="white"><title>youtube-play</title><path d="M23.8,12.3a22.5,22.5,0,0,0,0-2.6c0-.3-.1-1.1-.3-2.5a4.8,4.8,0,0,0-.5-2c0-.2-.2-.4-.4-.7L22,4a2.9,2.9,0,0,0-.8-.4l-.8-.2h-.8A15.6,15.6,0,0,0,17.1,3H11.9l-6.1.3S3,3.2,1.8,4a3.4,3.4,0,0,0-1,1.1,2.1,2.1,0,0,0-.2.6A19.4,19.4,0,0,0,.3,7.9c-.1,2.2-.1,2-.2,3a10.3,10.3,0,0,0,.1,1.8v2a9.2,9.2,0,0,1,.2,1.7c.1.3.1.7.2,1.1l.2.7a2.4,2.4,0,0,0,.8.9,4.1,4.1,0,0,0,1.1.6l1.2.3H5.1l5.3.4h4.3l3.9-.3,1.6-.2H21a3.5,3.5,0,0,0,1.9-1.2c.5-.6.6-1.5.8-3.4S23.8,13,23.8,12.3ZM8.9,15.5h0V7.7l6.8,3.9Z" transform="translate(-0.1 -2.8)"/></svg>